<svg width="73" height="70" viewBox="0 0 73 70" fill="none" xmlns="http://www.w3.org/2000/svg">
<path d="M48.5187 2.12674C52.1254 7.38856 54.0499 13.5946 54.0441 19.9445C54.0441 37.7038 39.2773 52.1008 21.06 52.1008C15.104 52.1117 9.2555 50.5374 4.13202 47.5443C9.75129 58.4459 21.3189 65.9288 34.6852 65.9288C53.565 65.9288 68.8691 51.0087 68.8691 32.6029C68.8691 18.9992 60.5028 7.30641 48.5187 2.12674Z" fill="#F8F8F8"/>
<path d="M21.2104 22.0055C21.5635 21.0833 22.2336 20.2825 23.1266 19.7158C24.0196 19.1491 25.0904 18.845 26.1884 18.8464H30.4049L30.4049 7.77777L32.1769 8.00231C36.1966 8.51165 39.3277 10.3185 41.4824 13.3728C43.0359 15.5744 43.7581 18.0031 44.0932 19.8195C46.407 21.3987 48.4199 23.5729 50.0834 26.2916C51.4854 28.5825 52.6459 31.2676 53.5329 34.2723C55.0317 39.3493 55.2346 43.5606 55.2424 43.7373L55.2432 48.6111H52.1389V43.8228C52.1 43.1144 51.1224 27.6125 41.7539 21.7096L41.2047 21.3636L41.1145 20.7713C40.6473 17.7052 39.0328 12.641 33.5097 11.0843V21.6005H26.1884C25.7395 21.5993 25.3015 21.723 24.9359 21.9542C24.5704 22.1854 24.2958 22.5124 24.1508 22.8892C22.9131 26.1301 20.7862 30.1856 17.4716 32.0914L18.4685 35.4073C18.8154 36.5898 19.6047 37.6329 20.7071 38.3657C21.8094 39.0985 23.1596 39.4777 24.5365 39.4411C27.3181 39.3671 30.2132 39.689 33.1417 40.3974L34.2859 40.6741L34.2859 48.6111H31.1811L31.1811 42.799C29.0356 42.3493 26.8338 42.146 24.6299 42.1939C22.5543 42.2447 20.5203 41.6721 18.8575 40.5691C17.1947 39.4661 16.0006 37.8972 15.4688 36.1169L13.8108 30.6018L15.0456 30.1324C17.3548 29.2545 19.5441 26.3683 21.2104 22.0055Z" fill="#F8F8F8"/>
</svg>
